<svg width="137" height="120" viewBox="0 0 137 120" fill="none" xmlns="http://www.w3.org/2000/svg">
<g clip-path="url(#clip0_53_449)">
<path d="M14.4701 114.164C14.8014 114.471 14.9951 114.527 15.1889 114.583C17.1019 114.508 18.7897 115.209 20.6214 114.69C23.7846 113.927 27.0042 112.971 30.1112 112.403C32.1367 111.94 34.2434 111.922 36.4313 112.347C38.4255 112.716 40.4759 112.891 42.6076 113.51C45.3769 114.105 47.9211 115.474 50.1589 117.174C52.0655 118.569 52.778 120.457 52.1589 122.588C51.6523 124.332 50.8145 125.77 49.0078 126.926C47.2573 127.889 45.4006 127.77 43.6252 128.095C40.9621 128.582 38.3865 128.044 35.7547 127.7C33.5668 127.275 31.3226 127.044 29.3598 125.843C26.8156 124.474 24.2714 123.105 22.1461 121.016C20.4896 119.485 18.5831 118.09 16.4514 117.471C15.8701 117.302 15.2887 117.134 14.6511 117.159C12.7944 117.04 10.6877 117.058 8.77476 117.133C6.66805 117.152 5.30515 118.227 3.47344 118.745C2.77951 118.964 1.97303 119.57 1.27911 119.789C-0.915227 120.833 -3.30335 121.82 -5.55397 123.058C-6.9981 123.689 -8.30472 124.571 -9.55506 125.258C-11.3055 126.221 -13.1935 126.933 -15.0003 128.089C-17.5572 129.658 -19.9204 131.283 -22.0086 133.409C-23.234 134.734 -24.9845 135.696 -26.3474 136.772C-27.5165 137.903 -28.9606 138.534 -30.5422 138.915C-30.9861 138.997 -31.4299 139.078 -31.8175 138.965C-32.8677 138.24 -34.0055 138.54 -35.2245 138.396C-35.4183 138.34 -35.9996 138.171 -35.9996 138.171C-36.1371 137.921 -35.9683 137.34 -35.7182 137.202C-34.1053 135.989 -32.4923 134.777 -30.6855 133.62C-28.1848 132.245 -25.6842 130.87 -23.1835 129.495C-21.9331 128.808 -20.7391 128.314 -19.6262 127.376C-16.7066 125.282 -13.787 123.188 -11.005 120.844C-9.14192 119.494 -7.47267 118.088 -5.60963 116.738C-3.44024 115.056 -2.76487 112.731 -3.05845 110.124C-3.32707 108.155 -3.65198 106.379 -3.97688 104.604C-4.16428 103.079 -3.71403 101.528 -3.26378 99.9781C-2.11323 96.74 0.0312177 94.4209 2.03815 91.8518C2.70714 90.9954 3.76369 90.2516 4.90147 89.9516C7.28959 88.9641 9.00234 90.3021 9.98983 92.6902C11.1961 95.7723 10.6019 98.5416 9.75771 101.448C8.96978 104.161 6.9379 106.093 5.23731 108.331C4.2057 109.712 3.03659 110.844 1.67369 111.919C1.36734 112.25 1.06098 112.581 0.94842 112.969C0.77958 113.55 0.416955 114.075 0.248112 114.657C0.191833 114.85 0.216772 115.488 0.216772 115.488C0.604352 115.601 0.991932 115.713 1.43578 115.632C2.43605 115.082 3.24254 114.476 4.4366 113.982C7.32486 112.719 10.2131 111.457 13.2389 110.444C14.8768 109.869 16.571 109.101 18.0151 108.469C18.2652 108.332 18.5153 108.194 18.7653 108.057C20.2971 106.4 21.8851 104.55 22.3667 102.168C22.5669 100.756 22.0731 99.5616 21.5794 98.3676C20.5356 96.1732 19.298 93.9226 18.5043 91.5908C17.8481 89.509 17.4983 87.0959 17.2859 84.9329C17.1548 83.2138 17.2738 81.3571 18.1679 79.7256C19.1183 77.9003 19.8748 76.0187 21.3503 74.556C22.5757 73.2308 24.52 72.3246 26.2704 71.362C27.0206 70.9495 28.0459 71.0371 28.8773 71.0685C31.3153 71.3563 32.8343 72.6379 34.1281 74.6948C36.0283 77.5581 35.5716 80.5774 35.5026 83.7094C35.3523 86.3975 34.4269 88.8604 33.3076 91.2671C32.3572 93.0924 31.6007 94.974 30.6503 96.7993C30.0625 98.0996 29.0872 99.2872 27.7806 100.169C26.5302 100.856 25.9425 102.156 25.2172 103.206C24.9109 103.538 25.1296 104.232 24.9045 105.007C25.5984 104.788 26.0985 104.513 26.5424 104.432C28.5429 103.332 30.7373 102.288 32.6003 100.938C35.2698 98.9815 37.9394 97.0251 39.9463 94.4559C41.2843 92.7432 42.2346 90.9179 43.4351 88.955C44.1603 87.9049 43.8604 86.7671 43.8105 85.4918C43.4044 83.2725 42.8607 80.8032 42.7047 78.4464C42.6298 76.5335 42.8051 74.483 43.5617 72.6014C44.2057 71.1074 44.4621 69.5008 45.1062 68.0068C45.6376 66.9004 46.2254 65.6001 46.7569 64.4937C47.7635 62.4746 49.1015 60.7618 50.6332 59.1054C51.5523 58.1115 52.3901 56.6737 53.3092 55.6798C55.1472 53.6921 57.5917 52.5108 60.2235 52.8549C61.2487 52.9425 62.4114 53.2802 63.2678 53.9492C65.0368 55.0933 65.3617 56.8687 65.4928 58.5879C65.7052 60.7509 65.5299 62.8013 65.3547 64.8518C65.3797 65.4894 65.2108 66.0708 64.8482 66.5959C64.0353 68.6712 63.4162 70.8029 62.4658 72.6282C61.5717 74.2597 60.3463 75.5849 59.5085 77.0227C57.1639 80.7545 53.7691 83.7611 50.2368 86.5176C49.9305 86.8489 49.2366 87.0677 48.7927 87.1489C48.0988 87.3676 47.4611 87.3926 47.236 88.1677C46.7295 89.9118 46.0292 91.5996 45.5789 93.1499C45.5226 93.3437 45.5226 93.3437 45.6039 93.7876C46.6041 93.2375 47.5481 92.8813 48.3546 92.275C52.1619 90.0186 55.913 87.956 59.7765 85.5058C61.8334 84.212 63.7527 82.6681 65.5345 80.8741C66.7599 79.5489 68.3729 78.3363 69.7358 77.2612C70.2922 76.7924 70.5985 76.4611 70.9612 75.936C71.2675 75.6047 71.1863 75.1608 71.2988 74.7733C71.4677 74.1919 71.6365 73.6105 71.9429 73.2793C72.1117 72.6979 72.168 72.5041 71.5866 72.3353C71.0053 72.1664 70.4239 71.9976 70.4553 71.1661C70.6804 70.391 71.2368 69.9222 71.8744 69.8972C72.3183 69.816 72.8997 69.9849 73.3435 69.9036C74.3687 69.9913 74.9814 69.3287 74.6252 68.3847C74.2689 67.4407 74.1065 66.553 73.5002 65.7465C72.2063 63.6897 71.8565 61.2766 71.5629 58.6697C71.0007 54.0937 71.8513 49.7178 73.1458 45.2607C73.99 42.3538 75.6094 39.6722 78.0851 37.6594C78.8916 37.0531 80.0856 36.5594 81.0859 36.0094C82.7801 35.2406 84.3304 35.6908 85.8244 36.3349C87.1809 36.7288 88.1185 37.8417 88.8061 39.092C90.3999 42.2866 90.2745 45.6124 89.7053 49.0193C89.1362 52.4263 88.1794 55.7206 86.6412 58.8462C85.6909 60.6715 84.4092 62.1905 83.1275 63.7094C82.0959 65.0909 80.8705 66.4161 79.8389 67.7975C79.4763 68.3226 79.3074 68.904 79.5824 69.4041C79.8012 70.098 79.6323 70.6794 78.9384 70.8981C77.8006 71.1981 77.1316 72.0545 76.6565 72.9671C76.5439 73.3547 76.2375 73.686 76.0687 74.2674C76.0124 74.4611 75.9561 74.6549 76.0936 74.905C76.2874 74.9613 76.4812 75.0176 76.7313 74.8801C77.1751 74.7988 77.4815 74.4675 77.7878 74.1362C80.2636 72.1235 82.7956 69.917 85.2713 67.9043C86.9406 66.4979 88.4161 65.0352 89.8915 63.5725C90.1416 63.435 90.0041 63.185 90.0604 62.9912C90.4543 61.6347 90.8483 60.2782 91.9611 59.3405C92.5988 59.3156 92.7113 58.928 92.8239 58.5405C93.1366 56.7401 93.3119 54.6896 93.4308 52.833C93.7186 50.395 94.394 48.0695 95.3194 45.6066C97.0264 41.8997 99.921 39.1681 103.284 36.9929C104.341 36.2491 105.591 35.5616 106.842 34.874C108.536 34.1053 110.999 35.0307 111.461 37.0562C111.761 38.194 111.811 39.4693 111.861 40.7446C111.823 43.0451 111.148 45.3705 110.141 47.3896C109.022 49.7963 107.378 51.8403 105.733 53.8844C103.839 56.0659 101.645 57.1097 99.144 58.4848C98.6439 58.7598 97.8937 59.1723 97.6686 59.9475C97.6123 60.1413 97.1122 60.4163 96.8621 60.5538C96.2494 61.2164 95.6367 61.879 94.9677 62.7353C95.4679 62.4603 95.968 62.1853 96.4681 61.9103C99.3314 60.0101 102.195 58.11 105.114 56.016C105.865 55.6035 106.146 54.6346 106.952 54.0283C108.178 52.7031 109.541 51.628 110.71 50.4966C112.267 49.4778 113.242 48.2901 114.136 46.6586C115.336 44.6958 116.593 42.5391 118.844 41.3016C120.15 40.4203 121.401 39.7327 122.651 39.0452C123.207 38.5764 123.708 38.3014 124.402 38.0826C125.458 37.3388 126.652 36.8451 127.903 36.1575C128.653 35.745 128.871 36.4389 129.146 36.9391C129.584 38.3269 129.44 39.5459 129.046 40.9025C128.177 43.1716 126.976 45.1344 125.113 46.4846C124.307 47.0909 123.638 47.9473 123.025 48.6098C121.219 49.7662 119.581 50.3412 117.886 51.1099C116.499 51.5474 115.192 52.4287 113.885 53.31C113.135 53.7225 112.329 54.3289 111.522 54.9352C111.272 55.0727 110.966 55.404 110.853 55.7915C111.047 55.8478 111.297 55.7103 111.491 55.7666C114.517 54.7542 117.43 54.1293 120.374 52.673C121.124 52.2605 122.15 52.3481 123.175 52.4357C125.225 52.6109 127.107 53.3675 128.932 54.3179C129.845 54.7931 129.87 55.4307 129.063 56.0371C127.507 57.0559 125.894 58.2685 124.337 59.2873C122.587 60.2499 120.811 60.5748 118.898 60.6496C117.623 60.6995 116.348 60.7494 115.129 60.6055C112.691 60.3177 110.278 60.6676 108.002 61.2675C107.752 61.405 107.558 61.3487 107.308 61.4862L107.252 61.68L107.446 61.7363C108.996 62.1865 110.602 62.443 112.153 62.8932C113.509 63.2872 113.591 63.7311 112.671 64.7249C112.615 64.9187 112.421 64.8624 112.309 65.25C113.14 65.2814 113.972 65.3127 114.609 65.2877C116.966 65.1317 119.235 66.0008 121.254 67.0075C121.917 67.6202 122.83 68.0954 123.549 68.5143C125.318 69.6585 126.03 71.5465 126.105 73.4594C126.098 74.9285 125.123 76.1161 123.954 77.2475C122.535 78.5164 120.841 79.2852 119.009 79.8039C117.427 80.1851 115.571 80.0661 114.02 79.6159C112.082 79.0531 109.951 78.434 108.069 77.6774C106.963 77.1459 105.913 76.4206 104.806 75.8892C101.681 74.351 98.305 72.9504 95.1232 71.6061C94.5418 71.4372 93.9042 71.4622 93.5166 71.3496C89.3594 71.1929 85.721 72.868 82.1637 74.9868C80.6633 75.8119 79.3567 76.6932 77.9938 77.7683C75.6869 79.1997 73.3237 80.8248 70.823 82.1999C69.3226 83.0249 67.8222 83.85 66.4593 84.9251C67.0407 85.0939 67.4845 85.0127 68.0659 85.1815C71.0853 85.6382 74.2172 85.7072 77.3242 85.1386C77.9619 85.1137 78.6558 84.895 79.3497 84.6762C81.7378 83.6887 84.2884 83.5889 86.8953 83.2954C89.3083 82.9455 91.8026 83.0395 94.2406 83.3273C94.8783 83.3024 95.6534 83.5275 96.4286 83.7526C97.7851 84.1466 99.1979 84.3468 100.554 84.7407C103.017 85.6662 105.343 86.3415 107.387 87.9858C109.293 89.3801 111.087 91.1619 112.381 93.2187C113.125 94.2753 113.562 95.6631 113.362 97.0759C113.031 96.7696 113.169 97.0196 113.112 97.2134C113.056 97.4072 112.75 97.7385 112.693 97.9323C112.637 98.1261 112.443 98.0698 112.443 98.0698C109.742 100.858 106.329 101.758 102.753 101.77C99.9526 102.007 97.0145 101.994 94.1889 101.594C91.3633 101.194 88.3439 100.737 85.6622 99.1175C84.2245 98.2797 82.843 97.2481 81.6554 96.2728C80.2739 95.2411 79.0862 94.2658 77.7048 93.2342C77.1797 92.8716 76.5983 92.7027 76.267 92.3964C74.498 91.2522 72.6727 90.3018 70.7099 89.1014C69.4659 88.3199 68.0531 88.1197 66.7216 88.3634C64.7523 88.632 62.5893 88.8443 60.7576 89.363C57.3443 90.2629 53.8184 91.5503 50.7613 93.3942C48.0105 94.9068 45.2035 96.6132 42.5903 98.3758C41.7838 98.9821 41.0336 99.3946 40.4209 100.057C40.1145 100.389 39.7519 100.914 39.8331 101.357C39.6643 101.939 39.9956 102.245 40.6332 102.22C43.7652 102.289 46.9284 101.527 49.8416 100.902C51.1732 100.658 52.3673 100.165 53.6426 100.115C54.7241 100.009 55.9993 99.9587 57.2183 100.103C59.075 100.222 60.8754 100.534 62.6757 100.847C65.7514 101.11 68.9083 101.817 71.8963 103.105C74.303 104.224 76.9035 105.399 79.0038 106.85C81.9605 108.969 84.1107 111.695 84.7605 115.246C85.1916 118.103 84.7912 120.929 82.178 122.691C80.0649 124.179 77.7893 124.779 75.1575 124.435C72.3319 124.034 69.5377 122.802 66.8809 121.821C63.6991 120.476 60.5736 118.938 57.6981 117.263C55.5415 116.006 53.4974 114.362 51.2033 112.855C49.9594 112.073 48.7154 111.292 47.4715 110.51C46.9464 110.148 46.365 109.979 46.09 109.479C44.321 108.334 42.7707 107.884 41.583 106.909C41.2517 106.602 40.6141 106.627 40.0327 106.459C39.4513 106.29 38.6199 106.258 38.0385 106.09C37.4572 105.921 36.8758 105.752 36.1256 106.164C35.6255 106.439 34.6565 106.158 33.9626 106.377C30.218 106.97 26.9421 108.12 23.6913 109.908C21.4406 111.145 18.8587 112.077 16.6644 113.12C15.7767 113.283 15.2203 113.752 14.4701 114.164ZM93.7527 87.1781L93.6964 87.3719C93.8902 87.4282 93.8339 87.622 94.0839 87.4845C95.8843 87.7972 97.7096 88.7476 99.4601 87.785C99.4601 87.785 99.7102 87.6475 99.904 87.7038C100.098 87.7601 100.292 87.8164 100.485 87.8727C100.429 88.0665 100.373 88.2602 100.316 88.454C100.066 88.5915 99.8163 88.729 99.51 89.0603C100.504 89.9794 101.867 88.9043 103.054 89.8796C102.361 90.0983 101.723 90.1233 101.279 90.2045L101.223 90.3983C101.942 90.8172 102.911 91.0986 103.629 91.5175C103.823 91.5738 103.961 91.8239 104.098 92.0739C103.848 92.2114 103.598 92.349 103.404 92.2927C103.017 92.1801 102.629 92.0676 102.242 91.955C102.242 91.955 102.185 92.1488 101.992 92.0925C103.342 93.9555 104.804 95.431 105.654 97.5691C103.31 94.787 101.523 91.5361 97.7032 90.2167C98.172 90.7731 98.6408 91.3295 99.0534 92.0797C99.5222 92.6361 99.991 93.1925 99.7658 93.9677C98.3594 92.2984 97.0093 90.4354 95.1028 89.0412C95.0465 89.235 95.0465 89.235 94.9902 89.4287C96.3966 91.098 97.803 92.7672 99.0156 94.3802C99.3469 94.6866 99.4282 95.1304 99.5094 95.5743L99.2593 95.7118C98.7905 95.1554 98.5155 94.6552 98.0467 94.0988C96.7778 92.6796 95.5652 91.0667 94.2963 89.6475C93.69 88.841 92.8336 88.172 91.502 88.4157C94.0398 91.2541 96.6902 93.7049 97.9214 97.4245C96.215 94.6175 94.4524 92.0043 91.8832 89.9973C91.8832 89.9973 91.8269 90.1911 91.6332 90.1348C91.9082 90.635 92.1832 91.1351 92.4582 91.6352L92.2081 91.7728C91.7393 91.2163 91.4643 90.7162 90.9955 90.1598C90.5267 89.6034 90.0016 89.2407 89.2828 88.8218C88.2889 87.9028 88.2889 87.9028 87.3449 88.259C89.8891 89.6283 91.6268 91.6039 92.8643 93.8545C92.4768 93.742 92.283 93.6857 92.1455 93.4356C90.464 91.2662 88.2262 89.5656 85.9321 88.0588C85.407 87.6962 84.8819 87.3336 84.0754 87.9399C85.1256 88.6651 86.1758 89.3904 87.2259 90.1157C88.2198 91.0347 89.0199 91.8975 90.0138 92.8165C91.4765 94.292 91.889 95.0422 91.8577 95.8736C89.2949 92.3976 82.7189 87.5459 80.9998 87.677C83.6252 89.4902 86.2506 91.3033 87.957 94.1104C86.3817 93.0225 84.919 91.547 83.3438 90.4591C81.7685 89.3712 80.3059 87.8958 78.1991 87.9143C79.5806 88.9459 81.2121 89.84 82.5936 90.8716C83.45 91.5406 84.1125 92.1533 84.9689 92.8223C85.1627 92.8786 85.0502 93.2662 85.0502 93.2662C83.6687 92.2345 82.0934 91.1467 80.6557 90.3088C79.218 89.471 77.699 88.1893 75.7861 88.2642C76.9737 89.2395 78.2177 90.0211 79.2116 90.9401C80.2055 91.8591 81.812 92.1156 82.3307 93.9473C80.2304 92.4968 78.2676 91.2963 76.3048 90.0959C74.3419 88.8954 72.0728 88.0263 70.2161 87.9073C71.0725 88.5763 72.1227 89.3016 73.3666 90.0831C75.5232 91.3398 77.6798 92.5966 79.8364 93.8533C81.7993 95.0538 83.4557 96.5855 85.3623 97.9797C86.5499 98.9551 88.044 99.5991 89.5943 100.049C92.3073 100.837 95.0517 100.794 97.9335 101C100.622 101.151 103.116 101.245 105.642 100.507C107.473 99.9885 109.111 99.4135 110.53 98.1446C111.393 97.3445 111.256 97.0945 110.593 96.4818C109.737 95.8128 108.88 95.1438 108.024 94.4748C107.886 94.2248 107.555 93.9184 107.418 93.6684C107.805 93.7809 108.305 93.5059 108.443 93.756C109.162 94.1749 109.881 94.5938 110.599 95.0127C110.793 95.069 110.987 95.1253 111.124 95.3753L111.375 95.2378C110.962 94.4876 110.55 93.7374 110.387 92.8497C109.893 91.6556 108.643 92.3432 107.98 91.7305C108.343 91.2054 108.649 90.8741 108.762 90.4865C107.93 90.4552 107.237 90.6739 106.405 90.6426C106.518 90.255 106.824 89.9237 106.937 89.5361C106.299 89.5611 105.524 89.336 104.886 89.3609C104.999 88.9733 105.249 88.8358 105.361 88.4483C104.53 88.4169 103.698 88.3856 103.117 88.2167L103.173 88.023C103.674 87.7479 104.117 87.6667 104.811 87.448C104.868 87.2542 104.868 87.2542 104.73 87.0041C103.455 87.054 101.986 87.0476 100.71 87.0975C100.71 87.0975 100.767 86.9037 100.573 86.8474C101.267 86.6287 101.767 86.3537 102.655 86.1912C100.329 85.5159 98.1976 84.8968 96.2034 84.5278C94.4031 84.215 92.659 83.7085 90.8023 83.5896C88.9457 83.4706 87.2265 83.6017 85.5074 83.7328C83.982 83.9202 82.4004 84.3014 81.0126 84.7389C80.8188 84.6826 80.7062 85.0702 80.6499 85.264C80.8437 85.3203 81.0375 85.3765 81.2313 85.4328C81.6752 85.3516 81.9252 85.2141 82.4254 84.9391C83.1193 84.7203 83.6194 84.4453 84.0882 85.0017C84.2257 85.2518 84.6696 85.1706 84.9196 85.0331C85.3635 84.9518 85.8636 84.6768 86.3075 84.5956C86.5576 84.4581 86.9451 84.5707 87.1389 84.6269C87.4952 85.5709 88.0516 85.1021 88.7455 84.8834C89.3832 84.8585 90.2709 84.696 90.4084 84.9461C90.8209 85.6963 91.321 85.4213 91.7649 85.34C92.2087 85.2588 92.6526 85.1776 93.1527 84.9026C93.5966 84.8213 94.0404 84.7401 94.0654 85.3778C94.0903 86.0154 93.509 85.8466 93.2589 85.9841C92.565 86.2028 91.8711 86.4215 90.9833 86.584C91.3709 86.6965 91.5084 86.9466 91.5647 86.7528C92.2586 86.5341 92.9526 86.3154 93.5902 86.2904C94.728 85.9905 95.8095 85.8843 96.9473 85.5843C97.1973 85.4468 97.4723 85.947 97.8599 86.0595C97.6098 86.197 97.3598 86.3345 97.1097 86.472C95.7219 86.9095 94.8342 87.072 93.7527 87.1781ZM63.087 114.625C63.1433 114.431 63.3371 114.488 63.3934 114.294C64.056 114.906 64.7186 115.519 65.1311 116.269C66.1499 117.826 67.1125 119.577 68.3251 121.19C68.6564 121.496 68.9877 121.802 69.319 122.109C69.319 122.109 69.3752 121.915 69.569 121.971C69.019 120.971 68.469 119.971 67.9189 118.97L68.169 118.833C69.5505 119.864 69.569 121.971 71.2568 122.671C71.0381 121.977 70.5693 121.421 70.3506 120.727C70.1318 120.033 69.8568 119.533 69.6381 118.839C69.6381 118.839 69.6381 118.839 69.8319 118.895C70.8507 120.452 71.9258 121.815 72.9446 123.372C73.1384 123.428 73.1947 123.234 73.3885 123.29C73.1135 122.79 73.0885 122.153 72.8135 121.653C72.5385 121.152 72.2635 120.652 71.9885 120.152C72.2386 120.015 72.2386 120.015 72.4886 119.877C72.9011 120.627 73.5074 121.434 73.92 122.184C74.195 122.684 74.4137 123.378 75.4389 123.466C74.7514 122.215 74.4514 121.078 73.7639 119.827C74.9516 120.803 75.6954 121.859 76.1891 123.053C76.3266 123.303 76.5204 123.36 76.6579 123.61C76.7142 123.416 76.8268 123.028 76.633 122.972C76.2768 122.028 75.9205 121.084 75.4268 119.89C76.8082 120.922 77.2457 122.309 77.9895 123.366C78.1897 121.953 77.4459 120.897 76.7021 119.84C78.2524 120.29 78.1897 121.953 79.1836 122.872C79.5775 121.516 79.0275 120.515 78.4775 119.515L78.7275 119.378C79.3339 120.184 79.8839 121.184 80.4902 121.991C80.5465 121.797 80.8528 121.466 80.8528 121.466C80.1403 119.578 79.6216 117.746 78.7966 116.246C77.7528 114.051 75.6525 112.601 73.9397 111.263C73.9397 111.263 73.8835 111.457 73.6897 111.4C73.6334 111.594 73.7709 111.844 73.7146 112.038C72.9958 111.619 72.4144 111.45 71.6955 111.031C72.5206 112.532 73.4019 113.838 74.0331 115.283L73.7831 115.42C72.3517 113.113 70.6703 110.944 68.3762 109.437C67.9886 109.324 67.7948 109.268 67.4635 108.962C67.4073 109.156 67.4073 109.156 67.351 109.349C67.6823 109.656 68.0136 109.962 68.0948 110.406C68.4261 110.712 68.7574 111.019 68.8949 111.269C68.8386 111.462 68.6448 111.406 68.5885 111.6C66.3507 109.899 64.7256 107.536 61.6499 107.273C62.6438 108.192 63.694 108.918 64.6878 109.837C64.6878 109.837 64.6316 110.03 64.4378 109.974C62.8625 108.886 61.3436 107.605 59.7683 106.517C59.712 106.711 59.712 106.711 59.462 106.848C61.1747 108.186 63.3876 109.249 64.4314 111.443C63.2437 110.468 62.1123 109.299 60.6746 108.461C59.4306 107.679 58.0492 106.648 56.33 106.779C58.3741 108.423 60.5307 109.68 62.0183 111.793C61.8245 111.737 61.6307 111.681 61.4369 111.624C60.3056 110.455 59.1179 109.48 57.8739 108.698C56.5737 108.111 55.5798 107.191 54.3359 106.41C53.4232 105.935 52.398 105.847 51.3165 105.953C54.5233 107.935 57.7863 109.723 60.3241 112.562C58.6926 111.668 57.3674 110.442 55.9297 109.605C54.4919 108.767 52.8041 108.066 51.1726 107.172L51.1163 107.366C51.9727 108.035 52.579 108.842 53.4354 109.511C53.3791 109.704 53.1853 109.648 53.129 109.842C51.4163 108.504 50.0099 106.835 47.4343 106.297C48.7595 107.522 50.1973 108.36 50.7722 109.998C50.2472 109.635 49.5846 109.023 49.0595 108.66C47.5968 107.184 46.1341 105.709 43.6648 106.253C43.471 106.196 43.471 106.196 43.2772 106.14C42.502 105.915 41.977 105.552 41.2018 105.327C40.6204 105.158 39.9828 105.183 39.3452 105.208L39.2889 105.402C39.4827 105.458 39.6765 105.515 39.8702 105.571C42.4458 106.109 44.4086 107.309 46.2026 109.091C46.8651 109.704 47.7215 110.373 48.4404 110.792C48.9655 111.154 49.3531 111.267 49.8781 111.629L49.9344 111.436C49.8532 110.992 49.5782 110.492 49.497 110.048L49.747 109.91C51.0473 110.498 50.9283 112.355 52.4223 112.999C52.3411 112.555 52.2036 112.305 52.0661 112.055C51.9286 111.805 52.0411 111.417 51.9036 111.167L52.1537 111.029C52.9787 112.53 53.9976 114.087 55.379 115.118C55.104 114.618 54.829 114.118 54.554 113.618C54.279 113.118 54.1977 112.674 53.979 111.98L54.2291 111.842C54.3666 112.092 54.7542 112.205 54.8917 112.455C55.773 113.762 56.7106 114.875 57.5919 116.181C58.0607 116.738 58.417 117.682 59.4422 117.769C58.9798 115.744 57.5171 114.268 56.5545 112.518C57.5484 113.437 58.7361 114.412 59.4799 115.469C60.2237 116.525 60.9113 117.776 61.6551 118.832C61.9864 119.138 62.3739 119.251 62.7052 119.557L62.7615 119.364C61.6052 117.557 60.4488 115.75 59.2925 113.943C60.7053 114.143 61.8117 114.675 62.7493 115.788C63.9057 117.595 65.062 119.401 66.2746 121.014C66.4121 121.264 66.7997 121.377 67.131 121.683C66.6187 118.382 64.5747 116.738 63.087 114.625ZM57.24 69.6396C58.184 69.2833 58.9342 68.8708 59.6281 68.6521C59.8782 68.5146 60.2095 68.8209 60.4032 68.8772C60.347 69.071 60.0969 69.2085 60.0406 69.4023C59.2904 69.8148 58.5965 70.0335 57.8463 70.446C57.0961 70.8586 56.2896 71.4649 56.3395 72.7402C56.5895 72.6027 57.0334 72.5214 57.2835 72.3839C57.7836 72.1089 58.2837 71.8339 58.7839 71.5589C59.0339 71.4214 59.3652 71.7277 59.7528 71.8403C59.6965 72.0341 59.584 72.4217 59.3339 72.5592C59.2776 72.7529 59.0838 72.6967 58.89 72.6404C57.8898 73.1904 56.6957 73.6842 55.6954 74.2342C55.9705 74.7343 56.3017 75.0407 56.633 75.347C56.8268 75.4033 57.0206 75.4596 57.4082 75.5721C58.0458 75.5472 58.9336 75.3847 59.5712 75.3598C59.8213 75.2223 60.0713 75.0848 60.3214 74.9473C61.1029 73.7033 61.8845 72.4594 62.4722 71.1591C63.0037 70.0527 63.5352 68.9463 63.8729 67.7835C64.1543 66.8146 64.6857 65.7081 64.6358 64.4329C64.0231 65.0954 63.4667 65.5642 62.9103 66.033C62.7165 65.9768 62.7728 65.783 62.579 65.7267C63.0542 64.814 63.4731 64.0952 63.9483 63.1825C63.5607 63.07 63.3107 63.2075 62.9231 63.0949C63.4546 61.9885 63.736 61.0195 64.3487 60.3569C64.9614 59.6943 64.8801 59.2505 64.8552 58.6128C64.7177 58.3628 64.774 58.169 64.8302 57.9752C64.6678 57.0875 64.5053 56.1998 63.7052 55.337C63.1738 56.4434 62.586 57.7437 61.7232 58.5438C61.8672 57.3248 62.2048 56.162 62.4862 55.1931C62.7114 54.418 62.3801 54.1116 61.7987 53.9428C61.2173 53.7739 60.3859 53.7426 59.7483 53.7675C59.5545 53.7112 58.9981 54.1801 58.9981 54.1801C59.1042 55.2616 59.2667 56.1493 59.5104 57.4808C59.9293 56.762 60.0981 56.1806 60.2107 55.793L60.4045 55.8493C60.3482 56.0431 60.4294 56.487 60.3731 56.6807C60.2043 57.2621 59.8417 57.7872 59.479 58.3123C59.4227 58.5061 58.9789 58.5873 58.9226 58.7811C58.7851 58.531 58.4538 58.2246 58.5101 58.0309C58.3726 57.7808 58.4851 57.3932 58.3476 57.1431C58.3227 56.5055 58.1602 55.6178 58.1353 54.9801C58.1103 54.3425 57.529 54.1737 57.0288 54.4487C55.916 55.3863 54.6657 56.0738 53.5528 57.0114C53.2465 57.3427 53.0214 58.1179 52.8525 58.6992C52.346 60.4433 51.8958 61.9936 51.3329 63.9315C51.0579 63.4314 50.9204 63.1813 50.7829 62.9312C50.364 63.6501 49.9451 64.369 49.7763 64.9503L49.5825 64.894C49.6138 64.0626 49.8389 63.2875 49.8703 62.456C48.1447 64.0562 48.6884 66.5256 47.2378 68.6259C47.2129 67.9883 47.1317 67.5444 46.9942 67.2943C46.7441 67.4318 46.4377 67.7631 46.3815 67.9569C46.3501 68.7883 46.0687 69.7573 46.0374 70.5887C45.8686 71.1701 45.8935 71.8077 45.2559 71.8327C45.0621 71.7764 44.9495 72.164 44.8932 72.3577C44.6368 73.9643 44.6304 75.4334 44.1801 76.9837C43.7862 78.3402 45.0301 79.1218 45.1363 80.2033C45.2489 79.8157 45.3614 79.4281 45.474 79.0405C45.6678 79.0968 45.6678 79.0968 45.8616 79.1531C46.024 80.0408 46.2427 80.7347 46.599 81.6787C46.599 81.6787 46.7928 81.735 46.849 81.5412C46.8804 80.7098 46.6616 80.0159 46.693 79.1844C46.7493 78.9906 46.6118 78.7406 46.668 78.5468C47.4745 77.9405 47.3121 77.0528 47.1496 76.1651C47.2059 75.9713 47.2622 75.7775 47.3185 75.5837C47.9248 76.3902 48.4498 76.7528 48.3622 77.778C48.1371 78.5532 48.4934 79.4972 48.7121 80.1911C48.9059 80.2474 48.9059 80.2474 49.1559 80.1099C49.2685 79.7223 49.5749 79.391 49.4936 78.9471C49.1687 77.1717 48.7875 75.5901 48.6564 73.8709C48.494 72.9832 48.3315 72.0955 48.3066 71.4579L48.5566 71.3204C48.6941 71.5704 48.8316 71.8205 48.9692 72.0706C49.2691 73.2084 49.3753 74.2899 49.6752 75.4276C49.894 76.1216 49.8064 77.1468 50.6627 77.8158C50.5815 77.3719 50.6941 76.9843 50.5566 76.7343C50.0129 74.2649 49.4693 71.7956 48.7319 69.2699C48.5944 69.0199 48.7069 68.6323 48.7632 68.4385C48.957 68.4948 49.0133 68.301 49.2071 68.3573C49.7507 70.8266 50.5444 73.1585 51.088 75.6278C51.2818 75.6841 51.3381 75.4903 51.5319 75.5466C51.2134 72.3021 50.0634 69.0262 49.9387 65.838C51.0388 67.8386 50.9448 70.3329 51.7947 72.4709C51.97 70.4205 51.0637 68.4762 50.9889 66.5633C51.4014 67.3135 51.8139 68.0637 52.0326 68.7576C52.5513 70.5893 53.0137 72.6148 53.7262 74.5028C53.8637 74.7529 54.0012 75.0029 54.0825 75.4468L54.3325 75.3093C54.4515 73.4526 53.2389 71.8397 52.914 70.0642C52.6453 68.095 52.1266 66.2633 51.8017 64.4879C51.8017 64.4879 51.9955 64.5442 52.0518 64.3504C53.3706 67.0449 53.3015 70.1768 54.5641 73.0651C55.1767 72.4025 55.4831 72.0712 55.0706 71.321C54.7956 70.8208 54.5768 70.1269 54.3581 69.433C53.952 67.2137 53.4895 65.1882 53.2772 63.0252C53.196 62.5814 53.3648 62 53.2836 61.5561C53.4774 61.6124 53.4774 61.6124 53.7275 61.4749C53.9462 62.1688 53.9711 62.8065 54.1899 63.5004C54.4086 64.1943 54.3773 65.0258 55.0961 65.4447C55.4274 65.751 55.6462 66.445 55.9212 66.9451C56.1399 67.639 56.3586 68.3329 56.3836 68.9706C56.3836 68.9706 56.5774 69.0269 56.6337 68.8331C57.0027 66.8389 55.7088 64.7821 56.1341 62.5941C56.4904 63.5381 56.8466 64.4821 57.0091 65.3698L57.2591 65.2323C56.9342 63.4569 56.2217 61.5689 56.3407 59.7123C57.5846 60.4938 56.9406 61.9878 57.797 62.6568C57.5284 60.6876 57.2597 58.7184 57.0474 56.5554C57.2412 56.6117 57.2975 56.4179 57.4913 56.4742C57.7663 56.9743 58.0413 57.4744 58.0662 58.1121C58.5037 59.4999 57.916 60.8002 59.0473 61.9693L58.9911 62.1631C58.7659 62.9382 58.7909 63.5759 58.5658 64.351C58.1155 65.9013 57.609 67.6454 57.3525 69.252C57.1587 69.1957 57.2962 69.4458 57.24 69.6396ZM18.2582 116.315C18.452 116.371 18.5895 116.621 18.5895 116.621C19.8085 116.765 20.8337 116.853 22.0527 116.997C24.4907 117.285 26.9601 116.741 29.1544 115.697C29.9046 115.285 30.5423 115.26 31.43 115.097C31.3737 115.291 31.5675 115.347 31.5112 115.541C30.3171 116.035 29.0668 116.722 27.6789 117.16C26.2911 117.597 24.9595 117.841 23.5717 118.278C24.8719 118.866 26.066 118.372 27.4538 117.935C28.5916 117.635 29.842 116.947 30.7859 116.591C31.036 116.454 31.2298 116.51 31.4236 116.566C31.4236 116.566 31.3673 116.76 31.5611 116.816C31.0047 117.285 30.3108 117.504 29.7543 117.973L29.8918 118.223C30.1419 118.085 30.5858 118.004 30.8358 117.867C31.5298 117.648 32.28 117.235 33.0302 116.823C33.2802 116.685 33.4177 116.935 33.6678 116.798C33.6115 116.992 33.499 117.379 33.499 117.379C32.1924 118.26 30.6919 119.086 29.0291 119.023C28.3914 119.048 27.7538 119.073 26.8661 119.235C27.3349 119.792 27.4724 120.042 27.6099 120.292C28.2725 120.904 28.7413 121.461 29.3476 122.267C29.4851 122.517 29.4288 122.711 29.3725 122.905C29.1787 122.849 28.9287 122.986 28.7912 122.736C28.5974 122.68 28.4599 122.43 28.4599 122.43C27.9911 121.873 27.5472 121.955 27.1283 122.673C27.5159 122.786 28.041 123.149 28.4285 123.261C30.2539 124.212 32.0229 125.356 34.017 125.725C35.4298 125.925 36.9801 126.375 38.4492 126.382C41.1373 126.532 43.6316 126.626 46.2385 126.332C48.6515 125.982 50.377 124.382 50.8586 122.001C51.14 121.032 51.0901 119.756 50.6776 119.006C49.8526 117.506 48.4148 116.668 46.9208 116.024C46.0082 115.549 45.0955 115.073 44.1266 114.792C42.5763 114.342 40.8885 113.642 39.2819 113.385C36.2625 112.928 33.3806 112.722 30.4111 113.541C28.3294 114.197 25.9163 114.547 23.8908 115.009C21.4215 115.553 19.8398 115.934 18.2582 116.315ZM127.819 55.2555C126.438 54.2239 124.888 53.7737 123.281 53.5172C122.312 53.2358 121.231 53.342 120.287 53.6982C119.787 53.9732 119.093 54.192 118.592 54.467C117.205 54.9044 115.954 55.592 114.623 55.8357C112.654 56.1043 111.016 56.6793 109.459 57.6981C108.209 58.3856 107.096 59.3232 105.845 60.0108C105.377 59.4543 105.683 59.123 106.046 58.598C107.44 56.6914 109.384 55.7852 111.11 54.185C112.585 52.7223 114.336 51.7597 116.005 50.3533C115.286 49.9344 115.398 49.5468 116.286 49.3844C117.174 49.2219 118.005 49.2533 118.893 49.0908C119.337 49.0096 119.587 48.8721 119.781 48.9284C119.781 48.9284 119.837 48.7346 119.643 48.6783C119.256 48.5657 118.812 48.647 118.174 48.6719C117.73 48.7531 117.343 48.6406 116.705 48.6655C116.761 48.4717 116.818 48.2779 116.818 48.2779C118.399 47.8968 120.2 48.2095 121.644 47.5782C121.644 47.5782 121.7 47.3844 121.506 47.3282C120.425 47.4343 119.15 47.4842 117.874 47.5341C117.931 47.3403 117.931 47.3403 117.793 47.0903C118.624 47.1216 119.262 47.0967 119.956 46.8779L120.012 46.6841C119.375 46.7091 118.737 46.734 118.349 46.6215C118.406 46.4277 118.406 46.4277 118.268 46.1776C120.044 45.8527 121.981 46.4155 123.676 45.6467L123.732 45.453C122.457 45.5029 121.238 45.359 119.962 45.4088C121.794 44.8902 123.845 45.0654 125.539 44.2966C125.595 44.1028 125.595 44.1028 125.457 43.8528C123.738 43.9839 122.019 44.115 120.106 44.1898C120.106 44.1898 120.163 43.9961 119.969 43.9398C122.188 43.5336 124.376 43.9589 126.295 42.415C125.158 42.715 123.882 42.7649 122.551 43.0086C124.107 41.9897 126.183 42.8026 127.327 41.0336C126.939 40.921 126.746 40.8647 126.746 40.8647C127.108 40.3396 127.415 40.0084 127.527 39.6208C127.527 39.6208 127.333 39.5645 127.39 39.3707C127.14 39.5082 126.696 39.5894 126.446 39.7269C126.502 39.5332 126.752 39.3957 126.752 39.3957C127.002 39.2581 127.39 39.3707 127.446 39.1769C127.502 38.9831 127.615 38.5956 127.671 38.4018C127.477 38.3455 127.146 38.0391 126.896 38.1766C125.646 38.8642 124.201 39.4954 122.951 40.183C119.369 41.6642 116.587 44.0082 114.88 47.7151C114.211 48.5715 113.486 49.6217 112.817 50.478C111.898 51.4719 110.785 52.4095 109.866 53.4034C109.003 54.2035 108.196 54.8098 107.334 55.6099C105.108 57.4851 102.826 59.5541 100.6 61.4293C99.2374 62.5044 97.487 63.467 95.7928 64.2357C93.042 65.7483 90.235 67.4547 87.4842 68.9673C87.2342 69.1048 86.9841 69.2423 86.7903 69.186C86.0714 68.7671 85.7088 69.2922 85.4025 69.6235C83.4269 71.3612 81.645 73.1551 79.3944 74.3927C79.1444 74.5302 79.0318 74.9178 78.7817 75.0553C79.1693 75.1678 79.4194 75.0303 79.6132 75.0866C82.0576 73.9053 84.752 72.5866 87.1964 71.4053C88.6406 70.774 89.8346 70.2803 90.0911 68.6737C90.1474 68.4799 90.3974 68.3424 90.6475 68.2049C92.0916 67.5736 93.6733 67.1924 94.7049 65.811C94.7612 65.6172 95.2613 65.3422 95.5114 65.2047C97.4556 64.2984 99.1498 63.5296 101.038 62.8172C103.176 61.9672 105.176 60.8671 107.508 60.0734C108.452 59.7172 109.621 58.5858 110.809 59.5611L111.003 59.6174C112.028 59.705 113.053 59.7926 114.135 59.6865C115.354 59.8304 116.629 59.7805 117.848 59.9244C116.385 58.4489 114.804 58.8301 113.166 59.4051C113.585 58.6862 113.697 58.2986 114.06 57.7735C114.254 57.8298 114.698 57.7486 114.948 57.6111C116.392 56.9798 117.667 56.9299 119.055 56.4925C120.386 56.2488 121.581 55.755 122.937 56.149C123.712 56.3741 124.681 56.6555 125.456 56.8807C126.038 57.0495 126.481 56.9683 126.707 56.1931C125.35 55.7992 124.187 55.4615 123.025 55.1238C123.081 54.93 123.081 54.93 123.137 54.7362C124.663 54.5488 126.157 55.1928 127.819 55.2555ZM99.8507 55.3279L99.9883 55.578C100.682 55.3592 101.182 55.0842 101.876 54.8655C102.126 54.728 102.57 54.6468 102.82 54.5093C103.07 54.3717 103.652 54.5406 103.708 54.3468C104.321 53.6842 104.852 52.5778 105.602 52.1652C107.965 50.5401 108.56 47.7708 109.873 45.4204L109.929 45.2266C110.242 43.4262 110.442 42.0134 110.698 40.4069C110.73 39.5754 110.705 38.9378 110.486 38.2439C110.048 36.856 108.861 35.8807 107.723 36.1807C106.835 36.3431 106.029 36.9494 105.279 37.3619C104.779 37.6369 104.61 38.2183 104.247 38.7434C104.022 39.5185 103.934 40.5438 103.709 41.3189C103.322 41.2064 103.128 41.1501 102.74 41.0375C102.321 41.7564 102.678 42.7004 101.596 42.8065C101.596 42.8065 101.483 43.1941 101.427 43.3879C101.452 44.0255 101.477 44.6632 101.502 45.3008C101.446 45.4946 101.389 45.6884 101.471 46.1323C101.277 46.076 101.277 46.076 101.027 46.2135C100.896 44.4944 100.571 42.7189 100.44 40.9998C100.246 40.9435 100.246 40.9435 100.052 40.8872C99.9396 41.2748 99.8833 41.4686 99.7707 41.8562C99.8206 43.1314 99.9268 44.2129 99.7829 45.432C99.7266 45.6257 99.6141 46.0133 99.5578 46.2071C99.364 46.1508 99.364 46.1508 99.1702 46.0945C99.064 45.013 98.9016 44.1253 98.7954 43.0438C98.8517 42.85 98.6579 42.7938 98.5204 42.5437C98.4641 42.7375 98.2141 42.875 98.1578 43.0688C98.1015 43.2626 98.2953 43.3188 98.239 43.5126C98.3452 44.5941 98.2576 45.6194 98.3637 46.7009C98.1699 46.6446 98.1699 46.6446 97.9199 46.7821C97.7574 45.8944 97.595 45.0067 97.3762 44.3127C97.3762 44.3127 97.1824 44.2565 97.1262 44.4502C96.5634 46.3881 97.4134 48.5262 97.4882 50.4391C97.2944 50.3828 97.2944 50.3828 97.0443 50.5203C96.7444 49.3825 96.4444 48.2448 96.0069 46.8569L95.8132 46.8006C95.7006 47.1882 95.588 47.5758 95.6693 48.0196C95.9942 49.7951 96.1816 51.3204 96.5628 52.9021C96.7003 53.1521 96.644 53.3459 96.5314 53.7335C96.3376 53.6772 96.2813 53.871 96.0876 53.8147C95.7876 52.6769 95.3501 51.2891 95.0502 50.1513C95.0502 50.1513 94.8564 50.095 94.8001 50.2888C94.6875 50.6764 94.6313 50.8702 94.5187 51.2577C94.6249 52.3392 94.731 53.4207 95.031 54.5585C95.1685 54.8086 95.056 55.1962 94.9434 55.5837C94.8059 55.3337 94.4183 55.2211 94.2808 54.971L94.087 54.9148C94.0307 55.1086 94.0307 55.1086 93.9745 55.3023C93.7743 56.7151 93.5178 58.3217 93.3176 59.7345C93.2614 59.9283 93.2051 60.1221 93.3989 60.1784C94.2552 60.8473 93.6988 61.3161 93.3362 61.8412C92.4171 62.8351 91.6919 63.8853 90.7728 64.8792L90.9103 65.1292C91.4668 64.6604 92.1607 64.4417 92.7171 63.9729C93.6362 62.979 94.1676 61.8726 94.8929 60.8224C95.1992 60.4911 95.3118 60.1035 95.4244 59.716C95.5369 59.3284 95.5932 59.1346 95.8995 58.8033C96.2059 58.472 96.5122 58.1407 96.8186 57.8094C98.1566 56.0967 99.5508 54.1901 100.889 52.4774C101.614 51.4272 102.396 50.1833 102.79 48.8267C103.49 47.1389 104.44 45.3136 105.141 43.6258C105.647 41.8817 106.154 40.1376 108.292 39.2876C107.704 40.5879 106.979 41.638 106.447 42.7445L106.641 42.8008C106.891 42.6633 106.947 42.4695 107.197 42.332C107.504 42.0007 107.673 41.4193 107.979 41.088C108.035 40.8942 108.423 41.0068 108.673 40.8693C108.617 41.0631 108.698 41.5069 108.448 41.6444C107.972 42.5571 107.11 43.3572 106.191 44.3511C105.941 44.4886 105.828 44.8761 105.715 45.2637C105.909 45.32 105.853 45.5138 106.047 45.5701C106.409 45.045 106.966 44.5762 107.466 44.3012C107.716 44.1637 107.91 44.2199 108.354 44.1387C108.297 44.3325 108.185 44.7201 107.935 44.8576C107.128 45.4639 106.378 45.8764 105.628 46.2889C105.128 46.564 104.821 46.8953 104.984 47.783C105.734 47.3704 106.234 47.0954 106.791 46.6266C107.041 46.4891 107.234 46.5454 107.485 46.4079C107.428 46.6017 107.316 46.9893 107.259 47.183C107.009 47.3206 106.759 47.4581 106.509 47.5956C106.453 47.7894 106.34 48.1769 106.34 48.1769C106.809 48.7333 106.253 49.2021 106.003 49.3397C105.252 49.7522 104.696 50.221 104.002 50.4397C102.864 50.7397 102.389 51.6523 101.72 52.5087L101.858 52.7588C102.858 52.2087 103.721 51.4086 104.721 50.8586L104.915 50.9149C104.802 51.3025 104.746 51.4963 104.44 51.8276C103.521 52.8214 102.464 53.5653 101.132 53.8089C100.576 54.2777 100.27 54.609 99.8507 55.3279ZM108.164 68.6691C109.327 69.0068 109.327 69.0068 109.802 68.0942C109.914 67.7066 110.164 67.5691 110.414 67.4316C110.665 67.2941 110.858 67.3503 111.108 67.2128C111.246 67.4629 111.133 67.8505 111.077 68.0443C110.964 68.4318 110.714 68.5694 110.602 68.9569C110.602 68.9569 110.796 69.0132 110.739 69.207C111.74 68.657 112.409 67.8006 113.878 67.807C113.265 68.4696 112.902 68.9947 112.54 69.5197C113.121 69.6886 113.565 69.6074 113.953 69.7199C115.309 70.1139 116.778 70.1203 118.303 69.9329C118.497 69.9891 118.691 70.0454 118.885 70.1017C119.716 70.133 120.573 70.802 121.242 69.9456C121.298 69.7519 121.685 69.8644 121.879 69.9207C122.792 70.3959 123.204 71.1461 123.561 72.0901C122.898 71.4774 122.179 71.0585 121.517 70.4458L121.46 70.6396C122.148 71.8899 123.448 72.4777 123.886 73.8655C122.804 73.9717 122.029 73.7466 121.479 72.7463C121.26 72.0524 120.485 71.8272 119.822 71.2145C119.929 72.296 121.035 72.8275 120.447 74.1278C119.541 72.1835 118.022 70.9018 115.834 70.4765C116.497 71.0892 117.216 71.5081 117.878 72.1208C118.872 73.0399 119.091 73.7338 118.672 74.4527C117.516 72.6459 116.303 71.0329 114.059 70.8014C114.14 71.2453 114.471 71.5516 114.803 71.858C115.465 72.4707 116.128 73.0834 116.734 73.8898C116.871 74.1399 116.815 74.3337 116.703 74.7213C116.509 74.665 116.121 74.5524 116.178 74.3586C115.159 72.802 113.583 71.7141 112.008 70.6262C111.814 70.5699 111.427 70.4573 111.233 70.4011L111.177 70.5948C111.314 70.8449 111.508 70.9012 111.646 71.1513C112.833 72.1266 114.021 73.1019 114.458 74.4898C114.596 74.7398 114.483 75.1274 114.427 75.3212C114.233 75.2649 113.902 74.9586 113.708 74.9023C113.102 74.0958 112.552 73.0955 111.752 72.2328C110.758 71.3137 109.57 70.3384 107.907 70.2757C108.57 70.8884 109.289 71.3073 109.951 71.92C110.614 72.5327 111.858 73.3143 111.214 74.8083C111.158 75.0021 111.295 75.2521 111.433 75.5022C112.289 76.1712 113.145 76.8402 114.002 77.5091L114.058 77.3154C113.258 76.4526 112.652 75.6461 111.795 74.9771C111.852 74.7833 111.852 74.7833 112.102 74.6458C112.627 75.0085 113.289 75.6212 113.814 75.9838C114.146 76.2901 114.614 76.8466 115.171 76.3778C115.227 76.184 115.558 76.4903 115.946 76.6029C116.334 76.7154 116.471 76.9655 116.802 77.2719C116.64 76.3841 117.084 76.3029 117.609 76.6655C118.134 77.0282 118.659 77.3908 119.184 77.7534C119.378 77.8097 119.766 77.9223 119.959 77.9786L120.016 77.7848C119.353 77.1721 118.747 76.3656 118.084 75.7529L118.14 75.5591C119.247 76.0906 120.297 76.8158 121.403 77.3473C121.46 77.1535 121.46 77.1535 121.516 76.9597C120.853 76.347 120.328 75.9844 119.666 75.3717L119.722 75.1779C120.303 75.3468 120.635 75.6531 121.216 75.8219C121.797 75.9908 122.21 76.741 123.016 76.1347C124.379 75.0596 124.805 72.8716 124.036 71.1774C123.817 70.4835 123.211 69.677 122.686 69.3144C121.248 68.4766 119.754 67.8325 118.26 67.1885C116.047 66.1256 113.803 65.8941 111.39 66.2439C107.007 66.8624 102.682 67.2871 98.2743 67.2679C97.2491 67.1803 96.3051 67.5365 95.2236 67.6427C95.8548 69.0868 97.2113 69.4808 97.9551 70.5373C97.9551 70.5373 98.0114 70.3436 98.2052 70.3998C97.8739 70.0935 97.5989 69.5933 97.2676 69.287C97.2676 69.287 97.3239 69.0932 97.5177 69.1495C98.5116 70.0685 99.6992 71.0439 100.637 72.1567L100.887 72.0192C100.087 71.1564 99.4805 70.3499 98.7367 69.2934C99.9244 70.2687 100.862 71.3816 102.05 72.3569C103.237 73.3322 104.287 74.0575 105.475 75.0328C104.65 73.5324 102.962 72.8321 102.387 71.1941C102.581 71.2504 102.969 71.363 102.912 71.5568C103.737 73.0572 105.231 73.7012 106.419 74.6766C106.613 74.7328 106.944 75.0392 106.888 75.233C107.269 76.8146 108.488 76.9585 109.595 77.49C109.788 77.5463 110.176 77.6588 110.426 77.5213L110.482 77.3275C110.345 77.0775 109.957 76.9649 109.82 76.7148C109.682 76.4648 109.351 76.1584 109.213 75.9083C110.295 75.8022 110.714 75.0833 110.164 74.083C109.282 72.7764 107.982 72.1886 106.795 71.2133C106.932 71.4634 107.263 71.7697 107.401 72.0198C108.063 72.6325 108.532 73.1889 109.195 73.8016C109.389 73.8579 109.276 74.2455 109.22 74.4393C109.026 74.383 108.832 74.3267 108.638 74.2704C107.451 73.2951 106.513 72.1823 105.325 71.2069C104.994 70.9006 104.8 70.8443 104.469 70.538C104.469 70.538 104.413 70.7317 104.219 70.6755C104.688 71.2319 105.157 71.7883 105.875 72.2072C106.401 72.5698 107.063 73.1825 107.032 74.014C106.644 73.9014 106.507 73.6513 106.369 73.4013C104.85 72.1196 103.638 70.5066 101.756 69.75C101.562 69.6937 101.231 69.3874 101.093 69.1373C101.481 69.2499 101.731 69.1124 102.119 69.2249C102.506 69.3375 102.838 69.6438 103.088 69.5063C103.975 69.3439 104.669 69.1252 105.557 68.9627C105.751 69.019 105.888 69.2691 106.026 69.5191C106.638 68.8565 107.195 68.3877 107.751 67.9189C108.001 67.7814 108.389 67.894 108.639 67.7565C108.526 68.1441 108.47 68.3378 108.358 68.7254C108.664 68.3941 108.414 68.5316 108.164 68.6691ZM26.9765 74.7191C27.1703 74.7754 27.1703 74.7754 26.9765 74.7191C27.6954 75.138 28.1079 75.8882 28.5767 76.4446L28.8268 76.3071C28.333 75.1131 27.7018 73.6689 27.2081 72.4749C27.0705 72.2248 26.683 72.1122 26.4329 72.2497C25.3514 72.3559 24.6261 73.4061 24.7323 74.4876C24.8135 74.9314 24.8385 75.5691 24.7259 75.9567C24.6134 76.3442 24.6946 76.7881 24.582 77.1757L24.3882 77.1194C24.032 76.1754 23.9258 75.0939 23.5696 74.1499L23.3758 74.0936C23.3195 74.2874 23.207 74.675 23.3445 74.925C23.4506 76.0065 23.6131 76.8943 23.7193 77.9758C23.663 78.1695 23.6067 78.3633 23.5504 78.5571C23.3566 78.5008 23.2191 78.2508 23.0816 78.0007C23.0004 77.5568 22.9192 77.113 22.8379 76.6691C22.7567 76.2253 22.6755 75.7814 22.538 75.5314C22.3442 75.4751 22.2879 75.6689 22.0941 75.6126C21.9189 77.663 22.7689 79.8011 22.3436 81.989C21.9061 80.6012 21.5249 79.0195 21.0875 77.6317C20.8937 77.5754 20.8374 77.7692 20.6436 77.7129C20.2746 79.7071 21.6247 81.5701 21.5058 83.4268L21.2557 83.5643C20.8995 82.6203 20.5432 81.6763 20.1307 80.9261C20.1307 80.9261 19.9369 80.8698 19.8806 81.0636C20.2618 82.6452 20.643 84.2268 21.0242 85.8085L20.7741 85.946C20.4179 85.002 19.9241 83.8079 19.5679 82.8639C19.4553 83.2515 19.399 83.4453 19.3428 83.6391C20.0552 85.5271 20.5177 87.5526 21.2301 89.4406C21.3676 89.6906 21.3114 89.8844 21.1988 90.272C20.6737 89.9094 20.5362 89.6593 20.2049 89.3529L19.9548 89.4905C20.7236 91.1846 21.2986 92.8226 22.0673 94.5168L22.3174 94.3793C22.0175 93.2415 21.5237 92.0474 21.2237 90.9096C21.4175 90.9659 21.4738 90.7721 21.6676 90.8284C22.7114 93.0227 23.5614 95.1608 24.6051 97.3551C24.6051 97.3551 24.6051 97.3551 24.7989 97.4114C24.0615 94.8858 23.5179 92.4164 22.7804 89.8908C23.0305 89.7533 23.3368 89.422 23.5869 89.2845C25.1308 91.2038 25.5619 94.0607 27.0495 96.1738C27.4998 94.6235 26.3684 93.4544 26.0684 92.3167C25.631 90.9288 24.9434 89.6785 24.506 88.2906C24.0122 87.0965 23.5748 85.7087 23.081 84.5146C23.2748 84.5709 23.3311 84.3771 23.5249 84.4334C25.1749 87.4342 26.2686 90.9039 27.975 93.7109C28.2065 91.4667 26.8564 89.6036 26.2002 87.5218C25.7378 85.4964 24.5814 83.6896 23.7314 81.5515C23.9252 81.6078 23.9815 81.414 24.1753 81.4703C24.669 82.6644 25.4128 83.7209 25.9066 84.915L26.1567 84.7775C26.1381 82.6708 25.8695 80.7016 25.8509 78.5948L26.101 78.4573C27.2573 80.2641 28.4699 81.8771 28.8761 84.0963L29.1261 83.9588C28.5262 81.6833 27.9263 79.4077 27.3264 77.1322C28.7078 78.1638 28.4514 79.7703 29.389 80.8832C29.0641 79.1078 28.0203 76.9134 26.9765 74.7191ZM76.7505 70.4728C78.5073 68.0412 80.0704 65.5533 81.9648 63.3717C84.4156 60.7214 85.9537 57.5959 86.9668 54.1077C87.5296 52.1698 88.0924 50.2319 88.6552 48.294C88.824 47.7127 88.6616 46.825 88.6366 46.1873C88.8055 45.606 88.8368 44.7745 88.6744 43.8868C88.6807 42.4177 88.0495 40.9736 87.4182 39.5295C87.3933 38.8918 86.9245 38.3354 86.0931 38.3041C86.0304 39.967 86.024 41.436 85.8801 42.655C86.1551 43.1552 86.6802 43.5178 86.6239 43.7116C86.3988 44.4867 86.0362 45.0118 85.811 45.787C85.6422 46.3683 85.2796 46.8934 85.1107 47.4748C85.3045 47.5311 85.3045 47.5311 85.4983 47.5873C85.9172 46.8685 86.5299 46.2059 86.9488 45.487C87.1426 45.5433 87.1426 45.5433 87.3364 45.5996C87.2801 45.7934 87.3613 46.2372 87.1113 46.3747C86.5798 47.4812 85.9108 48.3375 85.3794 49.444C84.9604 50.1629 84.7916 50.7442 84.5665 51.5194C84.7603 51.5757 84.7603 51.5757 84.954 51.6319C85.7605 51.0256 86.6233 50.2255 87.4298 49.6192L87.5673 49.8693C87.511 50.0631 87.3985 50.4507 87.1484 50.5882C85.9793 51.7195 84.7539 53.0447 83.391 54.1198C82.5845 54.7261 82.6094 55.3638 82.328 56.3327C82.8844 55.8639 83.3283 55.7827 83.8284 55.5077C84.0785 55.3702 84.4661 55.4827 84.6599 55.539C84.6036 55.7328 84.491 56.1204 84.4347 56.3142C83.8783 56.783 83.1844 57.0017 82.4342 57.4142C81.9341 57.6892 81.3776 58.158 81.7339 59.102C82.0402 58.7707 82.3466 58.4394 82.6529 58.1081C82.903 57.9706 83.1531 57.8331 83.4031 57.6956C83.2906 58.0832 83.4281 58.3333 83.3155 58.7208C82.9529 59.2459 82.5903 59.771 82.0901 60.046L82.2839 60.1023C82.3651 60.5462 82.5839 61.2401 82.3338 61.3776C81.9149 62.0965 81.2459 62.9528 80.4394 63.5591C79.883 64.0279 79.3829 64.303 78.964 65.0218C78.8514 65.4094 78.6013 65.5469 78.295 65.8782L78.1012 65.8219C77.995 64.7404 78.4139 64.0216 78.8891 63.1089C79.308 62.39 79.2268 61.9462 78.5079 61.5273C78.2828 62.3024 78.0014 63.2714 77.5825 63.9902C77.4699 64.3778 77.0261 64.459 76.776 64.5965C76.8886 64.209 76.7511 63.9589 76.8636 63.5713C77.2263 63.0462 77.3951 62.4649 76.9263 61.9085C75.77 60.1017 74.6699 58.1011 73.5136 56.2944C73.3761 56.0443 73.3761 56.0443 73.1823 55.988C73.0697 56.3756 72.9572 56.7632 73.0384 57.207C73.2571 57.901 73.7259 58.4574 74.0009 58.9575C74.551 59.9578 75.3511 60.8206 75.9011 61.8208C76.0386 62.0709 75.926 62.4585 76.0635 62.7085C75.676 62.596 75.4822 62.5397 75.1509 62.2334C74.8196 61.927 74.7384 61.4832 74.4071 61.1768C74.1321 60.6767 73.857 60.1765 73.582 59.6764L73.332 59.8139C73.4132 60.2578 73.3006 60.6453 73.4381 60.8954C73.8507 61.6456 74.5132 62.2583 74.982 62.8147C75.2571 63.3149 75.7821 63.6775 76.1134 63.9838C75.6945 64.7027 75.6945 64.7027 76.4946 65.5655C76.8259 65.8718 77.1572 66.1782 76.6008 66.647C76.0693 67.7534 76.0879 69.8601 76.7505 70.4728ZM0.0607128 113.131L-0.133077 113.075C-0.189359 113.269 -0.383139 113.213 -0.439421 113.406C-1.1084 114.263 -1.63988 115.369 -2.44636 115.975C-3.55919 116.913 -4.67202 117.851 -5.72858 118.594C-8.20432 120.607 -10.7363 122.814 -13.3496 124.576C-15.519 126.258 -17.6321 127.745 -19.939 129.177C-22.2459 130.608 -24.6903 131.789 -26.9972 133.221C-27.4973 133.496 -27.7474 133.633 -28.1912 133.714C-27.9162 134.215 -27.5849 134.521 -27.5037 134.965C-27.8913 134.852 -28.5289 134.877 -28.9165 134.765C-29.1103 134.708 -29.5541 134.79 -29.7479 134.733C-29.4729 135.233 -29.3354 135.484 -29.0604 135.984C-29.5042 136.065 -29.8918 135.952 -30.3357 136.034C-30.5295 135.977 -30.7795 136.115 -30.9733 136.058L-31.0296 136.252C-30.8921 136.502 -30.5045 136.615 -30.2295 137.115C-31.2547 137.027 -31.8924 137.052 -32.53 137.077L-32.5863 137.271C-32.1987 137.384 -32.0049 137.44 -31.6736 137.746C-30.761 138.221 -29.8733 138.059 -29.123 137.646C-27.8164 136.765 -26.7036 135.828 -25.397 134.946C-23.7277 133.54 -22.0585 132.133 -20.3892 130.727C-17.3571 128.246 -13.8561 126.32 -10.6052 124.533C-8.35461 123.295 -5.7727 122.364 -3.32829 121.183C1.0041 119.289 5.06147 116.895 9.61259 115.695C9.86265 115.558 10.1127 115.42 10.2502 115.67C11.2441 116.589 12.4945 115.902 13.7135 116.046C14.101 116.158 14.3511 116.021 14.795 115.94L14.8512 115.746C14.2136 115.771 13.576 115.796 12.9383 115.821C12.5507 115.708 12.357 115.652 11.9694 115.539C12.0819 115.152 11.9444 114.902 12.1945 114.764C13.001 114.158 14.0013 113.608 14.8077 113.001C15.808 112.451 17.0021 111.958 18.0023 111.408C18.0023 111.408 18.0586 111.214 17.8648 111.158C17.421 111.239 16.8396 111.07 16.3958 111.151C14.2577 112.001 12.3697 112.714 10.4255 113.62C8.23113 114.664 6.28687 115.57 4.23004 116.864C2.72963 117.689 1.14799 118.07 -0.571158 118.201C-1.45887 118.364 -1.73388 117.863 -1.50875 117.088C-1.39619 116.701 -1.08985 116.369 -0.921007 115.788C-0.777113 114.569 -0.358194 113.85 0.0607128 113.131ZM28.7303 104.857C28.7303 104.857 28.6741 105.051 28.8678 105.107C31.9186 104.732 34.888 103.914 37.995 103.345C38.0513 103.151 38.0513 103.151 37.9138 102.901C37.0888 101.401 37.6765 100.101 38.7894 99.1631C39.9585 98.0317 41.4589 97.2067 42.7092 96.5191C43.2656 96.0503 43.7658 95.7753 43.6033 94.8876C43.4658 94.6376 43.7722 94.3063 43.8847 93.9187C44.5288 92.4247 45.3666 90.9869 46.0669 89.2991C46.5421 88.3865 46.6297 87.3612 47.1049 86.4486C47.2737 85.8672 47.5801 85.5359 48.3552 85.761C48.549 85.8173 48.7991 85.6798 49.0492 85.5423C50.0494 84.9923 50.8559 84.386 51.8562 83.8359C53.7755 82.292 55.8886 80.8044 57.3391 78.7041C57.758 77.9852 58.3707 77.3226 58.7897 76.6037C58.5959 76.5475 58.6521 76.3537 58.4584 76.2974C56.8767 76.6786 55.2951 77.0598 53.6572 77.6347C53.4071 77.7723 53.157 77.9098 53.1008 78.1035C52.0691 79.485 51.2313 80.9227 50.3372 82.5543C49.9183 83.2731 49.4745 83.3544 48.9494 82.9917C48.5618 82.8792 48.4243 82.6291 48.093 82.3228C48.1742 82.7666 48.2554 83.2105 48.2804 83.8481C47.8928 83.7356 47.6428 83.8731 47.0614 83.7042C47.0051 83.898 46.9488 84.0918 46.8925 84.2856C47.2488 85.2296 46.9424 85.5609 46.1673 85.3357C45.8859 86.3047 45.6045 87.2736 45.3794 88.0488C44.7353 89.5428 43.9538 90.7867 42.9785 91.9744C42.2532 93.0246 41.4717 94.2685 40.5526 95.2624C39.8836 96.1188 38.8271 96.8626 37.9643 97.6627C36.5451 98.9316 35.376 100.063 34.0131 101.138C32.2313 102.932 30.4808 103.895 28.7303 104.857ZM32.7153 74.4946C32.5215 74.4383 32.5215 74.4383 32.3278 74.382C32.0464 75.351 31.9587 76.3762 31.6773 77.3451C31.4835 77.2888 31.4835 77.2888 31.2898 77.2326C31.2085 76.7887 31.1836 76.151 30.9086 75.6509C30.6585 75.7884 30.5459 76.176 30.3522 76.1197C29.6582 76.3384 29.4894 76.9198 30.0145 77.2824C30.8146 78.1452 30.5332 79.1141 30.6393 80.1957C30.7206 80.6395 30.5517 81.2209 30.4392 81.6084C30.1514 84.0465 29.9199 86.2907 29.8258 88.785C29.6193 91.6668 28.5001 94.0735 27.7121 96.7865C27.6558 96.9803 27.7371 97.4242 27.6808 97.618C28.1246 97.5368 28.5122 97.6493 28.6248 97.2617C29.2375 96.5991 29.6564 95.8803 30.0753 95.1614C29.744 94.8551 29.5502 94.7988 29.2189 94.4924C29.9691 94.0799 30.5255 93.6111 31.332 93.0048C30.9445 92.8922 30.7507 92.836 30.5569 92.7797C30.9758 92.0608 31.5885 91.3982 32.0074 90.6793C32.3138 90.348 32.2325 89.9042 32.5389 89.5729C32.9578 88.854 33.3204 88.3289 33.7393 87.6101C33.7393 87.6101 33.5455 87.5538 33.6018 87.36C33.1017 87.635 32.6015 87.91 32.0451 88.3788C32.5203 87.4662 33.1893 86.6098 33.6645 85.6971C34.0271 85.1721 34.196 84.5907 33.4771 84.1718C33.2833 84.1155 33.3959 83.7279 33.4521 83.5342C33.5647 83.1466 33.871 82.8153 34.0399 82.2339C34.1524 81.8463 34.0712 81.4025 34.1838 81.0149C33.6837 81.2899 33.3773 81.6212 32.9334 81.7025C33.0773 80.4834 33.5525 79.5708 33.6402 78.5456C33.7278 77.5203 34.5905 76.7202 33.7092 75.4136C33.2027 77.1577 33.4713 79.1269 32.0521 80.3958C32.3086 78.7892 32.7339 76.6013 32.7153 74.4946ZM2.92464 104.717C3.1747 104.58 3.36849 104.636 3.36849 104.636C5.11897 103.673 6.92573 102.517 8.67621 101.555C8.98256 101.223 9.03884 101.029 9.03884 101.029C9.77049 98.5102 10.2521 96.1285 9.26457 93.7404C8.00206 90.8521 6.95191 90.1269 4.39494 91.6957C4.33866 91.8895 4.14487 91.8332 4.0886 92.027C3.72596 92.5521 3.16955 93.0209 3.25077 93.4648C3.68824 94.8526 4.31949 96.2967 4.95074 97.7409C5.75723 97.1346 6.56372 96.5282 7.12014 96.0594C7.17642 95.8657 7.56399 95.9782 7.75778 96.0345C7.7015 96.2283 7.64522 96.4221 7.58894 96.6159C6.97623 97.2785 6.16975 97.8848 5.55705 98.5474C5.30698 98.6849 5.19442 99.0724 4.88807 99.4037C4.88807 99.4037 5.08187 99.46 5.02559 99.6538C5.52572 99.3788 5.83207 99.0475 6.3322 98.7725C6.58227 98.635 6.77606 98.6912 6.96985 98.7475C6.91357 98.9413 6.801 99.3289 6.55093 99.4664C5.93823 100.129 5.18804 100.542 4.57534 101.204L4.71284 101.454C5.40677 101.235 6.10069 101.017 6.73834 100.992L6.87584 101.242C6.3757 101.517 5.87557 101.792 5.56922 102.123C5.0128 102.592 4.34382 103.448 3.64989 103.667C3.26232 103.554 3.14976 103.942 2.92464 104.717ZM71.677 108.925L71.6207 109.118C73.4211 109.431 75.0839 109.494 76.9156 108.975C76.9156 108.975 76.8593 109.169 77.0531 109.225C76.6093 109.306 76.3029 109.638 75.8591 109.719L75.8028 109.913C76.2466 109.832 76.6342 109.944 77.2719 109.919C77.4657 109.975 77.797 110.282 77.9907 110.338C77.7407 110.476 77.4343 110.807 77.2405 110.751C76.9905 110.888 76.7967 110.832 76.4091 110.719C76.3528 110.913 76.3528 110.913 76.2965 111.107C76.6841 111.219 77.3218 111.194 77.7093 111.307C78.9283 111.451 78.9283 111.451 78.1468 112.695C78.7844 112.67 79.2283 112.589 79.6159 112.701C80.0035 112.814 80.391 112.926 80.5848 112.983C80.3347 113.12 80.0284 113.451 79.7783 113.589L79.722 113.783C80.3284 114.589 80.941 113.927 81.3849 113.845C81.3037 113.402 81.4162 113.014 81.335 112.57C79.9037 110.263 77.5846 108.119 74.7091 106.443C73.7965 105.968 72.6337 105.63 71.7774 104.961C71.2523 104.599 71.0585 104.542 70.5021 105.011C70.0019 105.286 69.5581 105.367 68.9204 105.392C67.3951 105.58 65.926 105.573 64.4569 105.567C64.0131 105.648 63.763 105.786 63.3192 105.867C64.6194 106.455 66.0322 106.655 67.3638 106.411C68.8891 106.224 70.4145 106.036 71.8835 106.043C72.0773 106.099 72.2148 106.349 72.4086 106.405C72.1586 106.543 72.1023 106.737 71.9085 106.68C71.4646 106.762 70.827 106.787 70.3831 106.868C69.4954 107.03 68.664 106.999 67.5825 107.105C69.8203 108.806 72.1522 108.012 74.5089 107.856C74.4527 108.05 74.4527 108.05 74.5902 108.3C73.6462 108.656 72.5647 108.762 71.677 108.925ZM69.0893 104.811C69.1456 104.617 69.1456 104.617 69.2018 104.423C69.0081 104.367 68.8143 104.311 68.6768 104.061C68.483 104.004 68.2892 103.948 68.0954 103.892C66.1889 102.498 63.8321 102.654 61.8379 102.285C60.6189 102.141 59.2061 101.941 57.9871 101.797C56.7681 101.653 55.3553 101.453 54.08 101.503C52.6109 101.496 51.2231 101.934 49.6415 102.315C49.4477 102.259 49.3914 102.452 49.1976 102.396C48.0598 102.696 46.7283 102.94 45.5342 103.433C44.8403 103.652 44.2026 103.677 43.7588 103.758C43.7025 103.952 43.7025 103.952 43.84 104.202C44.2839 104.121 45.2528 104.402 45.9467 104.184C47.0845 103.884 47.891 103.277 48.835 102.921C49.2788 102.84 49.5289 102.702 49.8039 103.203C50.0789 103.703 50.2727 103.759 50.7729 103.484C51.7168 103.128 52.6608 102.771 53.6048 102.415C53.8549 102.278 54.4363 102.447 54.5738 102.697C54.8488 103.197 54.4049 103.278 53.9611 103.359C53.2671 103.578 52.767 103.853 52.1294 103.878C52.0731 104.072 52.2669 104.128 52.2106 104.322C52.4044 104.378 52.8482 104.297 53.042 104.353C53.986 103.997 54.93 103.641 55.874 103.284C57.0681 102.791 57.0681 102.791 56.8679 104.203C58.2557 103.766 59.3935 103.466 60.5876 102.972L60.7251 103.222C60.1373 104.523 58.587 104.072 57.5305 104.816C59.4684 105.379 61.3001 104.86 62.8817 104.479C64.0195 104.179 63.9632 104.373 64.0694 105.454C65.7885 105.323 67.3701 104.942 69.0893 104.811ZM-0.126071 105.092C-0.126071 105.092 0.067719 105.148 -0.126071 105.092C-0.0947325 104.261 -0.450982 103.317 -0.613431 102.429L-0.363359 102.291C-0.0883471 102.792 0.186663 103.292 0.461673 103.792L0.711754 103.654C0.274285 102.266 -0.356976 100.822 -0.988228 99.3782L-0.738166 99.2407C-0.188134 100.241 0.418177 101.047 0.968202 102.048C0.749471 101.354 0.587019 100.466 0.368289 99.7721L0.618351 99.6346C1.03087 100.385 1.2496 101.079 1.66213 101.829C1.66213 101.829 1.85592 101.885 1.9122 101.691C1.80603 100.61 1.56235 99.2784 1.45618 98.1969C1.81242 99.1409 2.11238 100.279 2.6624 101.279L2.91247 101.141C2.39378 99.3097 1.87509 97.478 1.4939 95.8964C2.73786 96.6779 2.48139 98.2845 3.22521 99.3411C3.47528 99.2036 3.47528 99.2035 3.47528 99.2035C3.95047 98.2909 3.43817 94.9901 2.77558 94.3774C2.58179 94.3211 2.19421 94.2086 2.13793 94.4024C1.46895 95.2587 0.606188 96.0588 0.131 96.9715C-1.06945 98.9343 -2.01983 100.76 -2.30762 103.198C-2.70798 106.023 -1.72049 108.411 -0.289134 110.718C-0.289134 110.718 -0.0953533 110.775 -0.0390719 110.581C-0.589094 109.58 -0.889055 108.443 -1.3828 107.249C-0.995223 107.361 -0.607652 107.474 -0.163797 107.393C-0.520039 106.449 -0.682488 105.561 -1.03873 104.617L-0.788666 104.479C-0.594876 104.536 -0.457365 104.786 -0.126071 105.092ZM74.6149 45.2671C74.5586 45.4608 74.3085 45.5983 74.3085 45.5983C74.0271 46.5673 73.5519 47.4799 73.4643 48.5052C73.2641 49.918 72.6764 51.2182 74.1953 52.4999C75.5205 53.7253 76.2893 55.4195 77.3081 56.9761C77.5831 57.4763 77.9144 57.7826 78.1894 58.2828L78.4395 58.1453C78.302 57.8952 78.3583 57.7014 78.2208 57.4513C76.9832 55.2007 75.6081 52.7 74.3706 50.4494C74.2331 50.1994 74.1518 49.7555 74.0143 49.5054L74.2644 49.3679C75.752 51.481 77.2397 53.5941 78.4772 55.8448C77.6023 53.0691 76.0334 50.5121 74.2708 47.8989C74.7146 47.8176 75.1022 47.9302 75.2397 48.1803C75.846 48.9867 76.4523 49.7932 77.0024 50.7935C77.5524 51.7938 78.1587 52.6003 78.6524 53.7943C79.4903 52.3566 76.5214 46.6613 74.6149 45.2671ZM81.8976 46.9619C82.179 45.9929 82.5416 45.4678 81.9353 44.6614C81.1102 43.1609 80.0914 41.6043 79.0163 40.2414C78.8788 39.9913 78.8788 39.9913 78.7413 39.7412L78.7976 39.5474C78.9914 39.6037 79.3789 39.7163 79.5164 39.9663C80.3978 41.273 81.2791 42.5796 82.1604 43.8862C82.7667 44.6927 83.123 45.6367 83.673 46.637L83.9231 46.4995C84.1795 44.8929 83.2982 43.5862 82.8044 42.3922C82.1169 41.1418 81.2356 39.8352 80.548 38.5849L80.7981 38.4474C82.5109 39.7853 83.3609 41.9234 84.5172 43.7301C84.436 43.2863 84.5485 42.8987 84.2172 42.5924C83.6672 41.5921 83.311 40.6481 82.7609 39.6478C81.7172 37.4535 81.3296 37.3409 79.2728 38.6348C79.2728 38.6348 79.2728 38.6348 79.0227 38.7723C78.2162 39.3786 77.2159 39.9286 76.8783 41.0913C79.7288 42.1293 80.4099 44.8488 81.8976 46.9619ZM76.0559 77.2055C75.6684 77.0929 75.6683 77.0929 75.5308 76.8429C74.6182 76.3677 74.3432 75.8675 74.6246 74.8986C74.6809 74.7048 74.7934 74.3172 74.8497 74.1235C75.0185 73.5421 74.881 73.292 74.4372 73.3733C74.0496 73.2607 73.7995 73.3982 73.6057 73.3419C73.3806 74.1171 73.1555 74.8922 72.7929 75.4173C70.8985 77.5989 69.0604 79.5866 67.0285 81.5181C66.4158 82.1807 65.8594 82.6495 65.303 83.1183C65.303 83.1183 65.4968 83.1746 65.4405 83.3684C69.2727 81.7496 72.6362 79.5745 76.0559 77.2055ZM111.121 64.2747C109.021 62.8242 107.083 62.2614 104.945 63.1114C104.001 63.4676 102.807 63.9613 102.607 65.3741C102.438 65.9555 102.769 66.2618 103.213 66.1806C103.657 66.0994 104.294 66.0744 104.738 65.9932C106.264 65.8058 107.789 65.6184 109.371 65.2372C109.952 65.4061 110.565 64.7435 111.121 64.2747ZM74.6462 44.4356C77.1028 46.8301 78.6153 49.5809 80.3217 52.3879C80.6843 51.8628 80.7969 51.4753 80.7157 51.0314C79.7282 48.6433 78.5469 46.1989 77.3093 43.9483C77.0343 43.4481 76.3154 43.0292 76.0404 42.5291C75.6215 43.2479 75.2026 43.9668 74.6462 44.4356ZM63.4649 85.1061C62.3834 85.2122 55.4627 89.5063 55.0438 90.2252C58.3759 88.8814 61.708 87.5377 65.0401 86.194C65.0401 86.194 65.0964 86.0002 64.9026 85.9439C64.4588 86.0251 64.0149 86.1063 63.5711 86.1876C63.6836 85.8 63.6024 85.3561 63.4649 85.1061ZM77.4015 60.9958C77.8204 60.2769 77.933 59.8893 77.5204 59.1391C76.6954 57.6387 75.8141 56.3321 74.989 54.8317C74.5765 54.0815 73.9139 53.4688 73.5014 52.7186C73.3076 52.6623 73.2513 52.8561 73.0576 52.7998C73.1388 53.2437 72.8324 53.575 73.1637 53.8813C73.9888 55.3817 75.0076 56.9384 75.8326 58.4388C76.3264 59.6329 76.7952 60.1893 77.4015 60.9958ZM2.468 107.737C2.41172 107.93 2.60551 107.987 2.54924 108.18C3.24316 107.962 4.07459 107.993 4.631 107.524C5.74383 106.587 6.52538 105.343 7.50071 104.155C7.80706 103.824 7.9759 103.242 8.28225 102.911L8.08845 102.855C6.53176 103.874 4.72501 105.03 3.16832 106.049C3.74969 106.218 4.36238 105.555 4.7749 106.305C3.77463 106.855 3.02442 107.268 2.468 107.737ZM81.0534 49.8687C81.2471 49.925 81.3034 49.7312 81.4972 49.7874C81.416 49.3436 81.5848 48.7622 81.5036 48.3184C80.4035 46.3178 79.3035 44.3173 78.0096 42.2605C77.6783 41.9541 77.3471 41.6478 76.7657 41.4789C76.5719 41.4226 76.3218 41.5601 76.2656 41.7539C76.2656 41.7539 76.3468 42.1978 76.5406 42.2541C77.0094 42.8105 77.7282 43.2294 78.0033 43.7295C78.6096 44.536 79.1596 45.5363 79.5158 46.4803C80.0096 47.6743 80.5033 48.8684 81.0534 49.8687ZM66.1779 85.894C66.1216 86.0878 66.3154 86.1441 66.2591 86.3379C66.6467 86.4504 67.0906 86.3692 67.6719 86.538C68.0595 86.6506 68.5034 86.5694 68.7534 86.4319C69.5849 86.4632 70.36 86.6883 71.1352 86.9134C71.9666 86.9448 72.9918 87.0324 73.8233 87.0637C74.6547 87.0951 75.4049 86.6825 76.0988 86.4638C76.5427 86.3826 77.0428 86.1076 77.7367 85.8888L77.5992 85.6388C76.9616 85.6637 76.2677 85.8824 75.4362 85.8511C73.467 86.1197 71.4978 86.3884 69.5036 86.0193C68.7285 85.7942 67.8971 85.7629 67.0656 85.7315C66.8718 85.6753 66.6218 85.8128 66.1779 85.894ZM97.0054 65.8487L97.1429 66.0988C98.4182 66.0489 99.6372 66.1928 100.912 66.1429C101.138 65.3677 101.669 64.2613 102.007 63.0986C100.256 64.0611 98.6996 65.0799 97.0054 65.8487ZM23.6356 103.588C23.0478 104.888 22.2663 106.132 21.4285 107.57C22.1224 107.351 22.8163 107.132 23.5102 106.913C23.704 106.97 23.8166 106.582 23.8729 106.388C23.9605 105.363 23.798 104.475 23.6356 103.588ZM26.8071 81.8144C26.8071 81.8144 26.6133 81.7581 26.557 81.9519C26.5506 83.421 26.1567 84.7775 27.2318 86.1404C27.7006 86.6968 27.863 87.5845 28.2755 88.3347C28.2755 88.3347 28.2755 88.3347 28.5256 88.1972C27.8694 86.1154 27.4633 83.8962 26.8071 81.8144ZM27.0066 86.9155C26.5315 87.8282 27.2375 91.1853 28.3689 92.3544C28.3504 90.2477 27.5816 88.5535 27.0066 86.9155ZM82.9791 46.8557C82.4476 47.9621 82.635 49.4875 83.6852 50.2127C84.5479 49.4127 84.0292 47.5809 82.9791 46.8557ZM25.9553 99.2182C26.4554 98.9432 26.4554 98.9432 26.3492 97.8617C24.6927 96.3299 24.4804 94.1669 23.5741 92.2226C23.8741 93.3604 24.1741 94.4982 24.5303 95.4422C25.024 96.6363 25.5178 97.8303 25.9553 99.2182ZM81.0843 119.222C81.4783 117.865 80.022 114.92 78.528 114.276C79.353 115.777 80.1218 117.471 81.0843 119.222ZM72.2307 70.8412C72.1744 71.035 72.1744 71.035 72.1181 71.2288C73.0308 71.704 73.8059 71.9291 74.7186 72.4043C74.9124 72.4606 75.1062 72.5169 75.1062 72.5169C75.3562 72.3794 75.6626 72.0481 75.9126 71.9106C75.7189 71.8543 75.5813 71.6042 75.1938 71.4917C75 71.4354 74.8062 71.3791 74.6124 71.3228C73.8935 70.9039 73.0621 70.8726 72.2307 70.8412ZM24.4478 108.026L24.3103 107.776C22.2286 108.432 20.2843 109.339 18.4775 110.495L18.615 110.745C20.6156 109.645 22.5599 108.739 24.4478 108.026ZM82.5163 115.014C81.4035 115.952 81.4534 117.227 82.7785 118.453C82.7286 117.177 82.6225 116.096 82.5163 115.014ZM64.5056 119.87L64.7557 119.733C63.7368 118.176 62.718 116.619 61.6429 115.256L61.3928 115.394C62.6617 116.813 63.6806 118.37 64.5056 119.87ZM83.091 52.9821C83.2036 52.5945 83.3161 52.2069 83.4287 51.8193C82.9036 51.4567 82.3785 51.0941 81.7159 50.4814C81.7972 50.9252 81.6283 51.5066 81.7658 51.7567C82.2909 52.1193 82.6222 52.4256 83.091 52.9821ZM103.865 50.1896C104.421 49.7208 105.171 49.3083 105.728 48.8395C104.315 48.6393 103.815 48.9144 103.865 50.1896ZM101.909 41.0062C102.021 40.6186 101.94 40.1747 102.19 40.0372C102.44 39.8997 102.69 39.7622 102.94 39.6247C102.94 39.6247 103.134 39.681 103.078 39.8748C103.19 39.4872 103.247 39.2934 103.222 38.6558C101.721 39.4808 101.415 39.8121 101.909 41.0062ZM51.8446 73.7462C51.8446 73.7462 51.6508 73.6899 51.5946 73.8837C51.8133 74.5776 52.2258 75.3278 52.4446 76.0218C52.3883 76.2156 52.8321 76.1343 53.0259 76.1906C53.0822 75.9968 53.1385 75.803 53.1385 75.803C52.726 75.0528 52.3134 74.3026 51.8446 73.7462ZM25.9093 122.53C25.9093 122.53 25.9656 122.336 26.1594 122.392C25.4968 121.779 24.6967 120.917 24.0341 120.304C23.9778 120.498 23.784 120.441 23.7277 120.635C24.3903 121.248 25.2467 121.917 25.9093 122.53ZM94.4171 68.249C95.0797 68.8617 95.7423 69.4744 96.4048 70.0871C95.9111 68.893 94.9172 67.974 94.4171 68.249ZM28.8082 74.2004C29.1459 73.0377 28.8709 72.5375 27.902 72.2561C28.3145 73.0063 28.5332 73.7003 28.8082 74.2004ZM122.574 56.6741C122.518 56.8679 122.518 56.8679 122.462 57.0617C123.237 57.2868 123.956 57.7057 124.731 57.9308C124.787 57.737 124.787 57.737 124.844 57.5432C124.068 57.3181 123.35 56.8992 122.574 56.6741ZM80.3652 55.1323C79.5024 55.9324 79.7212 56.6263 80.8276 57.1578C80.6089 56.4638 80.5277 56.02 80.3652 55.1323ZM84.5863 40.5982C84.6425 40.4044 84.8363 40.4607 84.8926 40.2669C84.4238 39.7105 84.0113 38.9603 83.5425 38.4039L83.2924 38.5414C83.7049 39.2916 84.1737 39.848 84.5863 40.5982ZM81.5337 60.5148C80.5897 60.8711 80.2834 61.2024 80.3895 62.2839C80.7522 61.7588 81.1148 61.2337 81.5337 60.5148ZM81.3719 53.1132C81.1781 53.0569 80.928 53.1944 80.928 53.1944C81.0092 53.6383 81.0342 54.2759 81.1154 54.7198C81.3092 54.776 81.3092 54.776 81.5593 54.6385C81.478 54.1947 81.4531 53.557 81.3719 53.1132ZM50.3813 78.7847C50.4626 79.2285 50.35 79.6161 50.4312 80.06C50.9876 79.5912 51.1002 79.2036 50.3813 78.7847Z" fill="url(#paint0_linear_53_449)"/>
<path d="M108.18 96.8312C107.792 96.7186 107.598 96.6623 107.267 96.356C107.211 96.5498 106.961 96.6873 106.904 96.8811C106.104 96.0183 105.304 95.1555 104.504 94.2928C104.31 94.2365 104.367 94.0427 104.423 93.8489C104.479 93.6551 104.673 93.7114 104.673 93.7114C105.723 94.4367 106.911 95.412 107.905 96.3311C108.155 96.1935 108.098 96.3873 108.18 96.8312Z" fill="url(#paint1_linear_53_449)"/>
<path d="M72.9763 116.026C71.9012 114.663 70.6886 113.05 69.6135 111.687C69.6135 111.687 69.6698 111.493 69.8636 111.55C70.3886 111.912 70.9137 112.275 71.3825 112.831C71.9888 113.638 72.5951 114.444 73.2015 115.251C73.339 115.501 73.4765 115.751 73.4202 115.945C72.9763 116.026 72.9763 116.026 72.9763 116.026Z" fill="url(#paint2_linear_53_449)"/>
<path d="M76.3333 115.32C75.5332 114.457 74.7331 113.594 73.9893 112.538C74.8207 112.569 75.8958 113.932 76.3333 115.32Z" fill="url(#paint3_linear_53_449)"/>
<path d="M69.3507 114.763C68.7443 113.956 68.0817 113.344 67.6692 112.593C67.6692 112.593 67.7255 112.4 67.9193 112.456C68.5819 113.069 69.1882 113.875 69.8508 114.488C69.6007 114.625 69.4069 114.569 69.3507 114.763Z" fill="url(#paint4_linear_53_449)"/>
<path d="M65.2689 110.005C65.9315 110.618 66.5941 111.23 67.2004 112.037C67.2004 112.037 67.1441 112.231 66.9503 112.174C66.2877 111.562 65.6251 110.949 64.9626 110.336C65.2126 110.199 65.2126 110.199 65.2689 110.005Z" fill="url(#paint5_linear_53_449)"/>
<path d="M62.1041 60.125C62.5793 59.2123 62.8607 58.2434 63.2796 57.5245C63.3359 57.3307 63.586 57.1932 63.7798 57.2495C63.9736 57.3058 64.1111 57.5558 64.0548 57.7496C63.5796 58.6623 63.3545 59.4374 62.8793 60.3501C62.823 60.5439 62.6292 60.4876 62.4354 60.4313C62.2416 60.375 62.0479 60.3188 62.1041 60.125Z" fill="url(#paint6_linear_53_449)"/>
<path d="M38.0742 123.33C38.818 124.387 40.3433 124.2 40.9746 125.644C38.5366 125.356 36.6863 123.768 34.9173 122.624C34.861 122.818 34.8047 123.011 34.6109 122.955C35.8549 123.737 36.905 124.462 38.149 125.243C38.0927 125.437 38.0927 125.437 38.0364 125.631C36.9549 125.737 36.3486 124.931 35.3797 124.649C35.1546 125.424 34.767 125.312 34.2419 124.949C33.9106 124.643 33.5793 124.337 33.0542 123.974C32.8604 123.918 32.7229 123.668 32.6667 123.861C31.6664 124.411 31.5039 123.524 31.1726 123.217C30.3725 122.355 29.5162 121.686 28.6598 121.017C28.5223 120.766 28.3848 120.516 28.2473 120.266C28.4973 120.129 28.8037 119.798 28.9975 119.854C32.9608 119.954 36.4055 118.223 39.3814 115.935C39.6315 115.798 40.0753 115.716 40.3254 115.579C40.2128 115.967 40.1003 116.354 39.8502 116.492C38.5436 117.373 37.0432 118.198 35.7365 119.079C35.6803 119.273 35.4865 119.217 35.3739 119.604C35.624 119.467 36.0116 119.579 36.2616 119.442C37.0118 119.029 37.762 118.617 38.706 118.261C38.9561 118.123 39.1499 118.179 39.3437 118.236C39.2874 118.429 39.1748 118.817 39.1185 119.011C37.8119 119.892 36.4241 120.33 34.8424 120.711C34.1485 120.93 33.3171 120.898 32.6232 121.117L32.5669 121.311C32.9545 121.423 33.342 121.536 33.5358 121.592C34.6173 121.486 35.6988 121.38 36.6991 120.83C37.8369 120.53 38.6996 119.73 39.6436 119.373C39.8937 119.236 40.1438 119.098 40.5313 119.211C40.4188 119.599 40.3062 119.986 40.2499 120.18C39.6935 120.649 38.9433 121.061 38.3869 121.53L38.5244 121.78C38.9683 121.699 39.6059 121.674 39.9123 121.343C40.9125 120.793 41.719 120.186 42.5255 119.58C42.7756 119.443 42.9694 119.499 43.3569 119.611C43.3007 119.805 43.1881 120.193 43.1318 120.387C42.8255 120.718 42.269 121.187 41.9627 121.518L42.1002 121.768C42.6566 121.299 43.3505 121.08 43.907 120.612C44.4634 120.143 45.0198 119.674 45.5762 119.205C45.8263 119.068 46.0201 119.124 46.2701 118.987C46.2139 119.18 46.2951 119.624 46.2388 119.818C45.6261 120.481 44.8196 121.087 44.0694 121.499C43.8193 121.637 43.5693 121.774 43.2629 122.106L43.4004 122.356C43.9006 122.081 44.6508 121.668 45.1509 121.393C45.7073 120.924 46.4013 120.706 46.9577 120.237C47.5141 119.768 47.8767 119.243 48.4331 118.774C48.9832 119.774 48.508 120.687 46.7824 122.287C47.7264 121.931 48.6141 121.769 49.7519 121.469L49.8894 121.719C48.7766 122.656 47.445 122.9 45.8634 123.281C46.251 123.394 46.6385 123.506 47.0261 123.619C46.9698 123.813 46.9698 123.813 46.9136 124.006C44.8881 124.469 43.2003 123.769 41.0123 123.343C42.1437 124.512 43.8379 123.744 44.7192 125.05C42.3062 125.4 40.3184 123.562 38.0742 123.33Z" fill="url(#paint7_linear_53_449)"/>
</g>
<defs>
<linearGradient id="paint0_linear_53_449" x1="86.7326" y1="-37.2141" x2="-32.3399" y2="372.78" gradientUnits="userSpaceOnUse">
<stop stop-color="#AE803F"/>
<stop offset="0.2019" stop-color="#C4A266"/>
<stop offset="0.4009" stop-color="#D7BE86"/>
<stop offset="0.5108" stop-color="#DEC992"/>
<stop offset="1" stop-color="#DEC992"/>
</linearGradient>
<linearGradient id="paint1_linear_53_449" x1="140.265" y1="-21.6648" x2="21.1948" y2="388.323" gradientUnits="userSpaceOnUse">
<stop stop-color="#AE803F"/>
<stop offset="0.2019" stop-color="#C4A266"/>
<stop offset="0.4009" stop-color="#D7BE86"/>
<stop offset="0.5108" stop-color="#DEC992"/>
<stop offset="1" stop-color="#DEC992"/>
</linearGradient>
<linearGradient id="paint2_linear_53_449" x1="112.948" y1="-29.6003" x2="-6.12405" y2="380.394" gradientUnits="userSpaceOnUse">
<stop stop-color="#AE803F"/>
<stop offset="0.2019" stop-color="#C4A266"/>
<stop offset="0.4009" stop-color="#D7BE86"/>
<stop offset="0.5108" stop-color="#DEC992"/>
<stop offset="1" stop-color="#DEC992"/>
</linearGradient>
<linearGradient id="paint3_linear_53_449" x1="116.663" y1="-28.5215" x2="-2.40908" y2="381.473" gradientUnits="userSpaceOnUse">
<stop stop-color="#AE803F"/>
<stop offset="0.2019" stop-color="#C4A266"/>
<stop offset="0.4009" stop-color="#D7BE86"/>
<stop offset="0.5108" stop-color="#DEC992"/>
<stop offset="1" stop-color="#DEC992"/>
</linearGradient>
<linearGradient id="paint4_linear_53_449" x1="110.431" y1="-30.3348" x2="-8.64422" y2="379.668" gradientUnits="userSpaceOnUse">
<stop stop-color="#AE803F"/>
<stop offset="0.2019" stop-color="#C4A266"/>
<stop offset="0.4009" stop-color="#D7BE86"/>
<stop offset="0.5108" stop-color="#DEC992"/>
<stop offset="1" stop-color="#DEC992"/>
</linearGradient>
<linearGradient id="paint5_linear_53_449" x1="107.484" y1="-31.1911" x2="-11.591" y2="378.813" gradientUnits="userSpaceOnUse">
<stop stop-color="#AE803F"/>
<stop offset="0.2019" stop-color="#C4A266"/>
<stop offset="0.4009" stop-color="#D7BE86"/>
<stop offset="0.5108" stop-color="#DEC992"/>
<stop offset="1" stop-color="#DEC992"/>
</linearGradient>
<linearGradient id="paint6_linear_53_449" x1="90.5972" y1="-36.0928" x2="-28.4763" y2="373.905" gradientUnits="userSpaceOnUse">
<stop stop-color="#AE803F"/>
<stop offset="0.2019" stop-color="#C4A266"/>
<stop offset="0.4009" stop-color="#D7BE86"/>
<stop offset="0.5108" stop-color="#DEC992"/>
<stop offset="1" stop-color="#DEC992"/>
</linearGradient>
<linearGradient id="paint7_linear_53_449" x1="85.008" y1="-37.7145" x2="-34.0643" y2="372.279" gradientUnits="userSpaceOnUse">
<stop stop-color="#AE803F"/>
<stop offset="0.2019" stop-color="#C4A266"/>
<stop offset="0.4009" stop-color="#D7BE86"/>
<stop offset="0.5108" stop-color="#DEC992"/>
<stop offset="1" stop-color="#DEC992"/>
</linearGradient>
<clipPath id="clip0_53_449">
<rect width="143.88" height="137.826" fill="white" transform="translate(136.485 38.4397) rotate(106.195)"/>
</clipPath>
</defs>
</svg>
